<svg
  xmlns="http://www.w3.org/2000/svg"
  viewBox="0 0 64 64"
  width="100"
  height="100"
  fill="none"
  stroke="currentColor"
  strokeWidth="2"
>
  <!-- Chat Bubble -->
  <path
    d="M4 12C4 8.68629 6.68629 6 10 6H54C57.3137 6 60 8.68629 60 12V40C60 43.3137 57.3137 46 54 46H19L8 58V46H10C6.68629 46 4 43.3137 4 40V12Z"
    fill="#f0f4f9"
    stroke="#4b5563"
    strokeLinecap="round"
    strokeLinejoin="round"
  />
  
  <!-- AI Brain (symbol for AI) -->
  <circle cx="32" cy="26" r="10" fill="#60a5fa" />
  <path
    d="M28 24H36M28 28H36M30 22C30 20.8954 30.8954 20 32 20C33.1046 20 34 20.8954 34 22M34 30C34 31.1046 33.1046 32 32 32C30.8954 32 30 31.1046 30 30"
    stroke="#ffffff"
    strokeLinecap="round"
    strokeLinejoin="round"
  />
</svg>
